<mxfile host="app.diagrams.net" modified="2022-06-01T07:11:20.394Z" agent="5.0 (Macintosh; Intel Mac OS X 10_15_7) AppleWebKit/537.36 (KHTML, like Gecko) Chrome/102.0.5005.61 Safari/537.36" etag="_MkruEv1zKeKxrlonRxQ" version="18.1.3" type="github">
  <diagram name="Page-1" id="74e2e168-ea6b-b213-b513-2b3c1d86103e">
    <mxGraphModel dx="1091" dy="640" grid="1" gridSize="10" guides="1" tooltips="1" connect="1" arrows="1" fold="1" page="1" pageScale="1" pageWidth="1100" pageHeight="850" background="none" math="0" shadow="0">
      <root>
        <mxCell id="0" />
        <mxCell id="1" parent="0" />
        <mxCell id="77e6c97f196da883-1" value="ASC&amp;amp;DNB Portal" style="swimlane;html=1;childLayout=stackLayout;startSize=20;rounded=0;shadow=0;labelBackgroundColor=none;strokeWidth=1;fontFamily=Verdana;fontSize=8;align=center;" parent="1" vertex="1">
          <mxGeometry x="70" y="40" width="880" height="750" as="geometry" />
        </mxCell>
        <mxCell id="77e6c97f196da883-2" value="用户" style="swimlane;html=1;startSize=20;" parent="77e6c97f196da883-1" vertex="1">
          <mxGeometry y="20" width="160" height="730" as="geometry" />
        </mxCell>
        <mxCell id="hVIOwAaKkfjhpu5tAFnX-1" value="" style="shape=actor;whiteSpace=wrap;html=1;" vertex="1" parent="77e6c97f196da883-2">
          <mxGeometry x="60" y="60" width="40" height="50" as="geometry" />
        </mxCell>
        <mxCell id="hVIOwAaKkfjhpu5tAFnX-23" value="" style="shape=actor;whiteSpace=wrap;html=1;" vertex="1" parent="77e6c97f196da883-2">
          <mxGeometry x="60" y="613" width="40" height="50" as="geometry" />
        </mxCell>
        <mxCell id="77e6c97f196da883-26" style="edgeStyle=orthogonalEdgeStyle;rounded=1;html=1;labelBackgroundColor=none;startArrow=none;startFill=0;startSize=5;endArrow=classicThin;endFill=1;endSize=5;jettySize=auto;orthogonalLoop=1;strokeWidth=1;fontFamily=Verdana;fontSize=8;exitX=0.999;exitY=0.703;exitDx=0;exitDy=0;exitPerimeter=0;" parent="77e6c97f196da883-1" source="hVIOwAaKkfjhpu5tAFnX-1" target="77e6c97f196da883-11" edge="1">
          <mxGeometry relative="1" as="geometry">
            <mxPoint x="120" y="115" as="sourcePoint" />
          </mxGeometry>
        </mxCell>
        <mxCell id="77e6c97f196da883-39" style="edgeStyle=orthogonalEdgeStyle;rounded=1;html=1;labelBackgroundColor=none;startArrow=none;startFill=0;startSize=5;endArrow=classicThin;endFill=1;endSize=5;jettySize=auto;orthogonalLoop=1;strokeWidth=1;fontFamily=Verdana;fontSize=8" parent="77e6c97f196da883-1" target="77e6c97f196da883-23" edge="1">
          <mxGeometry relative="1" as="geometry">
            <mxPoint x="600" y="690" as="sourcePoint" />
          </mxGeometry>
        </mxCell>
        <mxCell id="77e6c97f196da883-40" style="edgeStyle=orthogonalEdgeStyle;rounded=1;html=1;labelBackgroundColor=none;startArrow=none;startFill=0;startSize=5;endArrow=classicThin;endFill=1;endSize=5;jettySize=auto;orthogonalLoop=1;strokeWidth=1;fontFamily=Verdana;fontSize=8" parent="77e6c97f196da883-1" target="77e6c97f196da883-24" edge="1">
          <mxGeometry relative="1" as="geometry">
            <mxPoint x="770" y="690" as="sourcePoint" />
          </mxGeometry>
        </mxCell>
        <mxCell id="107ba76e4e335f99-1" style="edgeStyle=orthogonalEdgeStyle;rounded=1;html=1;labelBackgroundColor=none;startArrow=none;startFill=0;startSize=5;endArrow=classicThin;endFill=1;endSize=5;jettySize=auto;orthogonalLoop=1;strokeWidth=1;fontFamily=Verdana;fontSize=8" parent="77e6c97f196da883-1" target="77e6c97f196da883-18" edge="1">
          <mxGeometry relative="1" as="geometry">
            <mxPoint x="610" y="450" as="sourcePoint" />
          </mxGeometry>
        </mxCell>
        <mxCell id="107ba76e4e335f99-3" style="edgeStyle=orthogonalEdgeStyle;rounded=1;html=1;labelBackgroundColor=none;startArrow=none;startFill=0;startSize=5;endArrow=classicThin;endFill=1;endSize=5;jettySize=auto;orthogonalLoop=1;strokeColor=#000000;strokeWidth=1;fontFamily=Verdana;fontSize=8;fontColor=#000000;" parent="77e6c97f196da883-1" source="77e6c97f196da883-22" edge="1">
          <mxGeometry relative="1" as="geometry">
            <mxPoint x="610" y="610" as="targetPoint" />
          </mxGeometry>
        </mxCell>
        <mxCell id="77e6c97f196da883-3" value="网关层" style="swimlane;html=1;startSize=20;" parent="77e6c97f196da883-1" vertex="1">
          <mxGeometry x="160" y="20" width="180" height="730" as="geometry" />
        </mxCell>
        <mxCell id="77e6c97f196da883-11" value="ALiDNS" style="rounded=1;whiteSpace=wrap;html=1;shadow=0;labelBackgroundColor=none;strokeWidth=1;fontFamily=Verdana;fontSize=8;align=center;" parent="77e6c97f196da883-3" vertex="1">
          <mxGeometry x="39" y="65" width="100" height="60" as="geometry" />
        </mxCell>
        <mxCell id="77e6c97f196da883-9" value="LSV DS" style="rounded=1;whiteSpace=wrap;html=1;shadow=0;labelBackgroundColor=none;strokeWidth=1;fontFamily=Verdana;fontSize=8;align=center;" parent="77e6c97f196da883-3" vertex="1">
          <mxGeometry x="39" y="155" width="100" height="60" as="geometry" />
        </mxCell>
        <mxCell id="hVIOwAaKkfjhpu5tAFnX-2" style="edgeStyle=orthogonalEdgeStyle;rounded=1;html=1;labelBackgroundColor=none;startArrow=none;startFill=0;startSize=5;endArrow=classicThin;endFill=1;endSize=5;jettySize=auto;orthogonalLoop=1;strokeWidth=1;fontFamily=Verdana;fontSize=8;exitX=0.5;exitY=1;exitDx=0;exitDy=0;entryX=0.5;entryY=0;entryDx=0;entryDy=0;" edge="1" parent="77e6c97f196da883-3" source="77e6c97f196da883-11" target="77e6c97f196da883-9">
          <mxGeometry relative="1" as="geometry">
            <mxPoint x="259" y="214" as="sourcePoint" />
            <mxPoint x="89" y="150" as="targetPoint" />
          </mxGeometry>
        </mxCell>
        <mxCell id="hVIOwAaKkfjhpu5tAFnX-3" value="Aserver" style="rounded=1;whiteSpace=wrap;html=1;shadow=0;labelBackgroundColor=none;strokeWidth=1;fontFamily=Verdana;fontSize=8;align=center;" vertex="1" parent="77e6c97f196da883-3">
          <mxGeometry x="39" y="250" width="100" height="60" as="geometry" />
        </mxCell>
        <mxCell id="hVIOwAaKkfjhpu5tAFnX-4" style="edgeStyle=orthogonalEdgeStyle;rounded=1;html=1;labelBackgroundColor=none;startArrow=none;startFill=0;startSize=5;endArrow=classicThin;endFill=1;endSize=5;jettySize=auto;orthogonalLoop=1;strokeWidth=1;fontFamily=Verdana;fontSize=8;exitX=0.5;exitY=1;exitDx=0;exitDy=0;entryX=0.5;entryY=0;entryDx=0;entryDy=0;" edge="1" parent="77e6c97f196da883-3" source="77e6c97f196da883-9" target="hVIOwAaKkfjhpu5tAFnX-3">
          <mxGeometry relative="1" as="geometry">
            <mxPoint x="99" y="135" as="sourcePoint" />
            <mxPoint x="99" y="165" as="targetPoint" />
          </mxGeometry>
        </mxCell>
        <mxCell id="hVIOwAaKkfjhpu5tAFnX-5" value="VIPServer" style="rounded=1;whiteSpace=wrap;html=1;shadow=0;labelBackgroundColor=none;strokeWidth=1;fontFamily=Verdana;fontSize=8;align=center;" vertex="1" parent="77e6c97f196da883-3">
          <mxGeometry x="39" y="350" width="100" height="60" as="geometry" />
        </mxCell>
        <mxCell id="hVIOwAaKkfjhpu5tAFnX-6" style="edgeStyle=orthogonalEdgeStyle;rounded=1;html=1;labelBackgroundColor=none;startArrow=none;startFill=0;startSize=5;endArrow=classicThin;endFill=1;endSize=5;jettySize=auto;orthogonalLoop=1;strokeWidth=1;fontFamily=Verdana;fontSize=8;exitX=0.5;exitY=1;exitDx=0;exitDy=0;" edge="1" parent="77e6c97f196da883-3" source="hVIOwAaKkfjhpu5tAFnX-3" target="hVIOwAaKkfjhpu5tAFnX-5">
          <mxGeometry relative="1" as="geometry">
            <mxPoint x="99" y="225" as="sourcePoint" />
            <mxPoint x="99" y="260" as="targetPoint" />
          </mxGeometry>
        </mxCell>
        <mxCell id="hVIOwAaKkfjhpu5tAFnX-8" value="域名解析到VIP" style="text;html=1;align=center;verticalAlign=middle;resizable=0;points=[];autosize=1;strokeColor=none;fillColor=none;" vertex="1" parent="77e6c97f196da883-3">
          <mxGeometry y="130" width="90" height="20" as="geometry" />
        </mxCell>
        <mxCell id="hVIOwAaKkfjhpu5tAFnX-9" value="VIP查找服务器" style="text;html=1;align=center;verticalAlign=middle;resizable=0;points=[];autosize=1;strokeColor=none;fillColor=none;" vertex="1" parent="77e6c97f196da883-3">
          <mxGeometry y="220" width="90" height="20" as="geometry" />
        </mxCell>
        <mxCell id="hVIOwAaKkfjhpu5tAFnX-10" value="查找集群机器IP" style="text;html=1;align=center;verticalAlign=middle;resizable=0;points=[];autosize=1;strokeColor=none;fillColor=none;" vertex="1" parent="77e6c97f196da883-3">
          <mxGeometry x="-5" y="320" width="100" height="20" as="geometry" />
        </mxCell>
        <mxCell id="hVIOwAaKkfjhpu5tAFnX-11" style="edgeStyle=orthogonalEdgeStyle;rounded=1;html=1;labelBackgroundColor=none;startArrow=none;startFill=0;startSize=5;endArrow=classicThin;endFill=1;endSize=5;jettySize=auto;orthogonalLoop=1;strokeWidth=1;fontFamily=Verdana;fontSize=8;exitX=0.75;exitY=0;exitDx=0;exitDy=0;entryX=0.75;entryY=1;entryDx=0;entryDy=0;" edge="1" parent="77e6c97f196da883-3" source="hVIOwAaKkfjhpu5tAFnX-5" target="hVIOwAaKkfjhpu5tAFnX-3">
          <mxGeometry relative="1" as="geometry">
            <mxPoint x="149" y="390" as="sourcePoint" />
            <mxPoint x="220" y="390" as="targetPoint" />
          </mxGeometry>
        </mxCell>
        <mxCell id="hVIOwAaKkfjhpu5tAFnX-52" value="Render" style="text;html=1;align=center;verticalAlign=middle;resizable=0;points=[];autosize=1;strokeColor=none;fillColor=none;" vertex="1" parent="77e6c97f196da883-3">
          <mxGeometry x="55" y="620" width="50" height="20" as="geometry" />
        </mxCell>
        <mxCell id="77e6c97f196da883-4" value="Server层" style="swimlane;html=1;startSize=20;" parent="77e6c97f196da883-1" vertex="1">
          <mxGeometry x="340" y="20" width="260" height="730" as="geometry" />
        </mxCell>
        <mxCell id="77e6c97f196da883-14" value="NodeJS Server" style="rounded=1;whiteSpace=wrap;html=1;shadow=0;labelBackgroundColor=none;strokeWidth=1;fontFamily=Verdana;fontSize=8;align=center;" parent="77e6c97f196da883-4" vertex="1">
          <mxGeometry x="35" y="250" width="190" height="60" as="geometry" />
        </mxCell>
        <mxCell id="hVIOwAaKkfjhpu5tAFnX-13" value="&lt;span style=&quot;&quot;&gt;根据路径 or 白名单&lt;/span&gt;&lt;br style=&quot;&quot;&gt;&lt;span style=&quot;&quot;&gt;渲染页面&lt;/span&gt;" style="rhombus;whiteSpace=wrap;html=1;rounded=0;shadow=0;labelBackgroundColor=none;strokeWidth=1;fontFamily=Verdana;fontSize=8;align=center;" vertex="1" parent="77e6c97f196da883-4">
          <mxGeometry x="37.5" y="350" width="185" height="60" as="geometry" />
        </mxCell>
        <mxCell id="hVIOwAaKkfjhpu5tAFnX-14" style="edgeStyle=orthogonalEdgeStyle;rounded=1;html=1;labelBackgroundColor=none;startArrow=none;startFill=0;startSize=5;endArrow=classicThin;endFill=1;endSize=5;jettySize=auto;orthogonalLoop=1;strokeWidth=1;fontFamily=Verdana;fontSize=8;exitX=0.5;exitY=1;exitDx=0;exitDy=0;entryX=0.5;entryY=0;entryDx=0;entryDy=0;" edge="1" parent="77e6c97f196da883-4" source="77e6c97f196da883-14" target="hVIOwAaKkfjhpu5tAFnX-13">
          <mxGeometry relative="1" as="geometry">
            <mxPoint x="-31" y="290" as="sourcePoint" />
            <mxPoint x="40" y="290" as="targetPoint" />
          </mxGeometry>
        </mxCell>
        <mxCell id="hVIOwAaKkfjhpu5tAFnX-21" value="新页面从diamond取数据" style="text;html=1;align=center;verticalAlign=middle;resizable=0;points=[];autosize=1;strokeColor=none;fillColor=none;" vertex="1" parent="77e6c97f196da883-4">
          <mxGeometry x="20" y="430" width="150" height="20" as="geometry" />
        </mxCell>
        <mxCell id="hVIOwAaKkfjhpu5tAFnX-47" value="LAGO SDK" style="rounded=1;whiteSpace=wrap;html=1;shadow=0;labelBackgroundColor=none;strokeWidth=1;fontFamily=Verdana;fontSize=8;align=center;" vertex="1" parent="77e6c97f196da883-4">
          <mxGeometry x="37.5" y="620" width="190" height="60" as="geometry" />
        </mxCell>
        <mxCell id="hVIOwAaKkfjhpu5tAFnX-53" value="解析DADA Schema&lt;br&gt;（额外处理 多语言）" style="rounded=1;whiteSpace=wrap;html=1;shadow=0;labelBackgroundColor=none;strokeWidth=1;fontFamily=Verdana;fontSize=8;align=center;" vertex="1" parent="77e6c97f196da883-4">
          <mxGeometry x="38" y="510" width="190" height="60" as="geometry" />
        </mxCell>
        <mxCell id="hVIOwAaKkfjhpu5tAFnX-54" style="edgeStyle=orthogonalEdgeStyle;rounded=1;html=1;labelBackgroundColor=none;startArrow=none;startFill=0;startSize=5;endArrow=classicThin;endFill=1;endSize=5;jettySize=auto;orthogonalLoop=1;strokeWidth=1;fontFamily=Verdana;fontSize=8;exitX=0.5;exitY=1;exitDx=0;exitDy=0;" edge="1" parent="77e6c97f196da883-4" source="hVIOwAaKkfjhpu5tAFnX-53" target="hVIOwAaKkfjhpu5tAFnX-47">
          <mxGeometry relative="1" as="geometry">
            <mxPoint x="140.00000000000023" y="320" as="sourcePoint" />
            <mxPoint x="140.00000000000023" y="360" as="targetPoint" />
          </mxGeometry>
        </mxCell>
        <mxCell id="hVIOwAaKkfjhpu5tAFnX-7" style="edgeStyle=orthogonalEdgeStyle;rounded=1;html=1;labelBackgroundColor=none;startArrow=none;startFill=0;startSize=5;endArrow=classicThin;endFill=1;endSize=5;jettySize=auto;orthogonalLoop=1;strokeWidth=1;fontFamily=Verdana;fontSize=8;exitX=1;exitY=0.5;exitDx=0;exitDy=0;entryX=0;entryY=0.5;entryDx=0;entryDy=0;" edge="1" parent="77e6c97f196da883-1" source="hVIOwAaKkfjhpu5tAFnX-3" target="77e6c97f196da883-14">
          <mxGeometry relative="1" as="geometry">
            <mxPoint x="250" y="340" as="sourcePoint" />
            <mxPoint x="250" y="380" as="targetPoint" />
          </mxGeometry>
        </mxCell>
        <mxCell id="hVIOwAaKkfjhpu5tAFnX-28" value="数据层" style="swimlane;html=1;startSize=20;" vertex="1" parent="77e6c97f196da883-1">
          <mxGeometry x="600" y="20" width="280" height="730" as="geometry" />
        </mxCell>
        <mxCell id="hVIOwAaKkfjhpu5tAFnX-37" value="diamond" style="swimlane;html=1;startSize=20;" vertex="1" parent="hVIOwAaKkfjhpu5tAFnX-28">
          <mxGeometry y="20" width="140" height="710" as="geometry" />
        </mxCell>
        <mxCell id="hVIOwAaKkfjhpu5tAFnX-39" value="" style="shape=datastore;whiteSpace=wrap;html=1;" vertex="1" parent="hVIOwAaKkfjhpu5tAFnX-37">
          <mxGeometry x="40" y="415" width="60" height="60" as="geometry" />
        </mxCell>
        <mxCell id="hVIOwAaKkfjhpu5tAFnX-27" value="旧页面数据在DADA上&lt;br&gt;存储在astore" style="text;html=1;align=center;verticalAlign=middle;resizable=0;points=[];autosize=1;strokeColor=none;fillColor=none;" vertex="1" parent="hVIOwAaKkfjhpu5tAFnX-37">
          <mxGeometry x="5" y="330" width="130" height="30" as="geometry" />
        </mxCell>
        <mxCell id="hVIOwAaKkfjhpu5tAFnX-38" value="astore" style="swimlane;html=1;startSize=20;" vertex="1" parent="hVIOwAaKkfjhpu5tAFnX-28">
          <mxGeometry x="140" y="20" width="140" height="710" as="geometry" />
        </mxCell>
        <mxCell id="hVIOwAaKkfjhpu5tAFnX-46" value="" style="shape=datastore;whiteSpace=wrap;html=1;" vertex="1" parent="hVIOwAaKkfjhpu5tAFnX-38">
          <mxGeometry x="40" y="415" width="60" height="60" as="geometry" />
        </mxCell>
        <mxCell id="hVIOwAaKkfjhpu5tAFnX-20" style="edgeStyle=orthogonalEdgeStyle;rounded=1;html=1;labelBackgroundColor=none;startArrow=none;startFill=0;startSize=5;endArrow=classicThin;endFill=1;endSize=5;jettySize=auto;orthogonalLoop=1;strokeWidth=1;fontFamily=Verdana;fontSize=8;exitX=0;exitY=0.5;exitDx=0;exitDy=0;entryX=0;entryY=0.3;entryDx=0;entryDy=0;" edge="1" parent="77e6c97f196da883-1" source="hVIOwAaKkfjhpu5tAFnX-13" target="hVIOwAaKkfjhpu5tAFnX-39">
          <mxGeometry relative="1" as="geometry">
            <mxPoint x="475" y="340" as="sourcePoint" />
            <mxPoint x="400" y="460" as="targetPoint" />
          </mxGeometry>
        </mxCell>
        <mxCell id="hVIOwAaKkfjhpu5tAFnX-45" style="edgeStyle=orthogonalEdgeStyle;rounded=1;html=1;labelBackgroundColor=none;startArrow=none;startFill=0;startSize=5;endArrow=classicThin;endFill=1;endSize=5;jettySize=auto;orthogonalLoop=1;strokeWidth=1;fontFamily=Verdana;fontSize=8;exitX=1;exitY=0.5;exitDx=0;exitDy=0;entryX=0.5;entryY=0;entryDx=0;entryDy=0;" edge="1" parent="77e6c97f196da883-1" source="hVIOwAaKkfjhpu5tAFnX-13" target="hVIOwAaKkfjhpu5tAFnX-46">
          <mxGeometry relative="1" as="geometry">
            <mxPoint x="309.0000000000002" y="310" as="sourcePoint" />
            <mxPoint x="385" y="310" as="targetPoint" />
          </mxGeometry>
        </mxCell>
        <mxCell id="hVIOwAaKkfjhpu5tAFnX-44" style="edgeStyle=orthogonalEdgeStyle;rounded=1;html=1;labelBackgroundColor=none;startArrow=none;startFill=0;startSize=5;endArrow=classicThin;endFill=1;endSize=5;jettySize=auto;orthogonalLoop=1;strokeWidth=1;fontFamily=Verdana;fontSize=8;exitX=0.5;exitY=1;exitDx=0;exitDy=0;entryX=1;entryY=0.5;entryDx=0;entryDy=0;" edge="1" parent="77e6c97f196da883-1" source="hVIOwAaKkfjhpu5tAFnX-39" target="hVIOwAaKkfjhpu5tAFnX-47">
          <mxGeometry relative="1" as="geometry">
            <mxPoint x="400" y="520.0000000000002" as="sourcePoint" />
            <mxPoint x="473" y="560" as="targetPoint" />
          </mxGeometry>
        </mxCell>
        <mxCell id="hVIOwAaKkfjhpu5tAFnX-51" style="edgeStyle=orthogonalEdgeStyle;rounded=1;html=1;labelBackgroundColor=none;startArrow=none;startFill=0;startSize=5;endArrow=classicThin;endFill=1;endSize=5;jettySize=auto;orthogonalLoop=1;strokeWidth=1;fontFamily=Verdana;fontSize=8;exitX=0;exitY=0.5;exitDx=0;exitDy=0;entryX=1;entryY=0.75;entryDx=0;entryDy=0;" edge="1" parent="77e6c97f196da883-1" source="hVIOwAaKkfjhpu5tAFnX-47" target="hVIOwAaKkfjhpu5tAFnX-23">
          <mxGeometry relative="1" as="geometry">
            <mxPoint x="480.0000000000002" y="340" as="sourcePoint" />
            <mxPoint x="120" y="590" as="targetPoint" />
          </mxGeometry>
        </mxCell>
        <mxCell id="hVIOwAaKkfjhpu5tAFnX-48" style="edgeStyle=orthogonalEdgeStyle;rounded=1;html=1;labelBackgroundColor=none;startArrow=none;startFill=0;startSize=5;endArrow=classicThin;endFill=1;endSize=5;jettySize=auto;orthogonalLoop=1;strokeWidth=1;fontFamily=Verdana;fontSize=8;exitX=0.5;exitY=1;exitDx=0;exitDy=0;entryX=1;entryY=0.5;entryDx=0;entryDy=0;" edge="1" parent="77e6c97f196da883-1" source="hVIOwAaKkfjhpu5tAFnX-46" target="hVIOwAaKkfjhpu5tAFnX-53">
          <mxGeometry relative="1" as="geometry">
            <mxPoint x="680" y="525.0000000000002" as="sourcePoint" />
            <mxPoint x="470" y="560" as="targetPoint" />
          </mxGeometry>
        </mxCell>
      </root>
    </mxGraphModel>
  </diagram>
</mxfile>
